<mxfile host="app.diagrams.net" agent="Mozilla/5.0 (Windows NT 10.0; Win64; x64) AppleWebKit/537.36 (KHTML, like Gecko) Chrome/128.0.0.0 Safari/537.36" version="24.7.7">
  <diagram name="Página-1" id="56xPcTbAhgfk_wzcyqml">
    <mxGraphModel dx="1434" dy="772" grid="1" gridSize="10" guides="1" tooltips="1" connect="1" arrows="1" fold="1" page="1" pageScale="1" pageWidth="827" pageHeight="1169" math="0" shadow="0">
      <root>
        <mxCell id="0" />
        <mxCell id="1" parent="0" />
        <mxCell id="ZlQN-Xo1y-UWy3ocTEKw-79" value="" style="verticalLabelPosition=bottom;verticalAlign=top;html=1;shape=mxgraph.basic.rect;fillColor2=none;strokeWidth=1;size=20;indent=5;" parent="1" vertex="1">
          <mxGeometry x="130" y="270" width="960" height="1100" as="geometry" />
        </mxCell>
        <mxCell id="ZlQN-Xo1y-UWy3ocTEKw-54" style="rounded=0;orthogonalLoop=1;jettySize=auto;html=1;entryX=0;entryY=0.5;entryDx=0;entryDy=0;" parent="1" source="ZlQN-Xo1y-UWy3ocTEKw-2" target="ZlQN-Xo1y-UWy3ocTEKw-51" edge="1">
          <mxGeometry relative="1" as="geometry" />
        </mxCell>
        <mxCell id="ZlQN-Xo1y-UWy3ocTEKw-2" value="Alumno" style="shape=umlActor;verticalLabelPosition=bottom;verticalAlign=top;html=1;outlineConnect=0;" parent="1" vertex="1">
          <mxGeometry x="40" y="370" width="30" height="60" as="geometry" />
        </mxCell>
        <mxCell id="ZlQN-Xo1y-UWy3ocTEKw-69" style="rounded=0;orthogonalLoop=1;jettySize=auto;html=1;" parent="1" source="ZlQN-Xo1y-UWy3ocTEKw-12" target="ZlQN-Xo1y-UWy3ocTEKw-64" edge="1">
          <mxGeometry relative="1" as="geometry" />
        </mxCell>
        <mxCell id="ZlQN-Xo1y-UWy3ocTEKw-70" style="rounded=0;orthogonalLoop=1;jettySize=auto;html=1;entryX=0;entryY=1;entryDx=0;entryDy=0;" parent="1" source="ZlQN-Xo1y-UWy3ocTEKw-12" target="ZlQN-Xo1y-UWy3ocTEKw-52" edge="1">
          <mxGeometry relative="1" as="geometry" />
        </mxCell>
        <mxCell id="ZlQN-Xo1y-UWy3ocTEKw-71" style="rounded=0;orthogonalLoop=1;jettySize=auto;html=1;" parent="1" source="ZlQN-Xo1y-UWy3ocTEKw-12" target="ZlQN-Xo1y-UWy3ocTEKw-67" edge="1">
          <mxGeometry relative="1" as="geometry" />
        </mxCell>
        <mxCell id="ZlQN-Xo1y-UWy3ocTEKw-12" value="Instructor" style="shape=umlActor;verticalLabelPosition=bottom;verticalAlign=top;html=1;outlineConnect=0;" parent="1" vertex="1">
          <mxGeometry x="20" y="680" width="30" height="60" as="geometry" />
        </mxCell>
        <mxCell id="ZlQN-Xo1y-UWy3ocTEKw-68" style="rounded=0;orthogonalLoop=1;jettySize=auto;html=1;entryX=1;entryY=0.5;entryDx=0;entryDy=0;" parent="1" source="ZlQN-Xo1y-UWy3ocTEKw-37" target="ZlQN-Xo1y-UWy3ocTEKw-64" edge="1">
          <mxGeometry relative="1" as="geometry" />
        </mxCell>
        <mxCell id="ZlQN-Xo1y-UWy3ocTEKw-73" style="rounded=0;orthogonalLoop=1;jettySize=auto;html=1;entryX=1;entryY=0.5;entryDx=0;entryDy=0;" parent="1" source="ZlQN-Xo1y-UWy3ocTEKw-37" target="ZlQN-Xo1y-UWy3ocTEKw-60" edge="1">
          <mxGeometry relative="1" as="geometry">
            <mxPoint x="650" y="660" as="sourcePoint" />
          </mxGeometry>
        </mxCell>
        <mxCell id="ZlQN-Xo1y-UWy3ocTEKw-74" style="rounded=0;orthogonalLoop=1;jettySize=auto;html=1;entryX=1;entryY=0.5;entryDx=0;entryDy=0;" parent="1" source="ZlQN-Xo1y-UWy3ocTEKw-37" target="ZlQN-Xo1y-UWy3ocTEKw-61" edge="1">
          <mxGeometry relative="1" as="geometry">
            <mxPoint x="660" y="660" as="sourcePoint" />
          </mxGeometry>
        </mxCell>
        <mxCell id="ZlQN-Xo1y-UWy3ocTEKw-76" style="rounded=0;orthogonalLoop=1;jettySize=auto;html=1;entryX=1;entryY=0.5;entryDx=0;entryDy=0;" parent="1" source="ZlQN-Xo1y-UWy3ocTEKw-37" target="ZlQN-Xo1y-UWy3ocTEKw-63" edge="1">
          <mxGeometry relative="1" as="geometry">
            <mxPoint x="670" y="660" as="sourcePoint" />
          </mxGeometry>
        </mxCell>
        <mxCell id="ZlQN-Xo1y-UWy3ocTEKw-77" style="rounded=0;orthogonalLoop=1;jettySize=auto;html=1;entryX=0.907;entryY=0.229;entryDx=0;entryDy=0;entryPerimeter=0;" parent="1" source="ZlQN-Xo1y-UWy3ocTEKw-37" edge="1" target="ZlQN-Xo1y-UWy3ocTEKw-65">
          <mxGeometry relative="1" as="geometry">
            <mxPoint x="675" y="660" as="sourcePoint" />
            <mxPoint x="600" y="1100" as="targetPoint" />
          </mxGeometry>
        </mxCell>
        <mxCell id="ZlQN-Xo1y-UWy3ocTEKw-37" value="Administrador" style="shape=umlActor;verticalLabelPosition=bottom;verticalAlign=top;html=1;outlineConnect=0;" parent="1" vertex="1">
          <mxGeometry x="1220" y="650" width="30" height="60" as="geometry" />
        </mxCell>
        <mxCell id="ZlQN-Xo1y-UWy3ocTEKw-51" value="CU3 - Inscripción a clases" style="ellipse;whiteSpace=wrap;html=1;" parent="1" vertex="1">
          <mxGeometry x="210" y="365" width="140" height="70" as="geometry" />
        </mxCell>
        <mxCell id="ZlQN-Xo1y-UWy3ocTEKw-52" value="CU4 - Registro de asistencia" style="ellipse;whiteSpace=wrap;html=1;" parent="1" vertex="1">
          <mxGeometry x="180" y="600" width="140" height="70" as="geometry" />
        </mxCell>
        <mxCell id="ZlQN-Xo1y-UWy3ocTEKw-60" value="CU5 - Informes" style="ellipse;whiteSpace=wrap;html=1;" parent="1" vertex="1">
          <mxGeometry x="530" y="1080" width="140" height="70" as="geometry" />
        </mxCell>
        <mxCell id="ZlQN-Xo1y-UWy3ocTEKw-61" value="CU1 - Gestión de usuarios" style="ellipse;whiteSpace=wrap;html=1;" parent="1" vertex="1">
          <mxGeometry x="740" y="380" width="140" height="70" as="geometry" />
        </mxCell>
        <mxCell id="ZlQN-Xo1y-UWy3ocTEKw-63" value="CU6 - Integración" style="ellipse;whiteSpace=wrap;html=1;" parent="1" vertex="1">
          <mxGeometry x="870" y="1040" width="140" height="70" as="geometry" />
        </mxCell>
        <mxCell id="ZlQN-Xo1y-UWy3ocTEKw-64" value="CU7 - Comunicación con Usuarios" style="ellipse;whiteSpace=wrap;html=1;" parent="1" vertex="1">
          <mxGeometry x="400" y="680" width="140" height="70" as="geometry" />
        </mxCell>
        <mxCell id="ZlQN-Xo1y-UWy3ocTEKw-65" value="CU8 - Gestión de eventos" style="ellipse;whiteSpace=wrap;html=1;" parent="1" vertex="1">
          <mxGeometry x="870" y="1169" width="140" height="70" as="geometry" />
        </mxCell>
        <mxCell id="ZlQN-Xo1y-UWy3ocTEKw-67" value="CU9 - Evaluación de desempeño" style="ellipse;whiteSpace=wrap;html=1;" parent="1" vertex="1">
          <mxGeometry x="190" y="770" width="140" height="70" as="geometry" />
        </mxCell>
        <mxCell id="ZlQN-Xo1y-UWy3ocTEKw-80" value="Academia de baile" style="text;html=1;align=center;verticalAlign=middle;whiteSpace=wrap;rounded=0;" parent="1" vertex="1">
          <mxGeometry x="320" y="280" width="120" height="30" as="geometry" />
        </mxCell>
        <mxCell id="q2k8F1NlpNZnWGl9-G9X-2" style="edgeStyle=orthogonalEdgeStyle;rounded=0;orthogonalLoop=1;jettySize=auto;html=1;entryX=0.5;entryY=0;entryDx=0;entryDy=0;exitX=1;exitY=1;exitDx=0;exitDy=0;exitPerimeter=0;" edge="1" parent="1">
          <mxGeometry relative="1" as="geometry">
            <mxPoint x="70" y="430" as="sourcePoint" />
            <mxPoint x="470" y="680" as="targetPoint" />
            <Array as="points">
              <mxPoint x="70" y="555" />
              <mxPoint x="470" y="555" />
            </Array>
          </mxGeometry>
        </mxCell>
        <mxCell id="q2k8F1NlpNZnWGl9-G9X-5" value="Include" style="endArrow=open;endSize=12;dashed=1;html=1;rounded=0;exitX=0.5;exitY=1;exitDx=0;exitDy=0;entryX=1;entryY=0.5;entryDx=0;entryDy=0;" edge="1" parent="1" source="ZlQN-Xo1y-UWy3ocTEKw-61" target="q2k8F1NlpNZnWGl9-G9X-10">
          <mxGeometry width="160" relative="1" as="geometry">
            <mxPoint x="798" y="464" as="sourcePoint" />
            <mxPoint x="670" y="540" as="targetPoint" />
          </mxGeometry>
        </mxCell>
        <mxCell id="q2k8F1NlpNZnWGl9-G9X-6" value="Include" style="endArrow=open;endSize=12;dashed=1;html=1;rounded=0;exitX=0;exitY=1;exitDx=0;exitDy=0;entryX=1;entryY=0.5;entryDx=0;entryDy=0;" edge="1" parent="1" source="ZlQN-Xo1y-UWy3ocTEKw-61" target="q2k8F1NlpNZnWGl9-G9X-9">
          <mxGeometry width="160" relative="1" as="geometry">
            <mxPoint x="808" y="474" as="sourcePoint" />
            <mxPoint x="680" y="550" as="targetPoint" />
          </mxGeometry>
        </mxCell>
        <mxCell id="q2k8F1NlpNZnWGl9-G9X-7" value="CU1 - Actualizar Usuario" style="ellipse;whiteSpace=wrap;html=1;" vertex="1" parent="1">
          <mxGeometry x="530" y="370" width="140" height="70" as="geometry" />
        </mxCell>
        <mxCell id="q2k8F1NlpNZnWGl9-G9X-8" value="CU1 - Crear Usuario" style="ellipse;whiteSpace=wrap;html=1;" vertex="1" parent="1">
          <mxGeometry x="530" y="290" width="140" height="70" as="geometry" />
        </mxCell>
        <mxCell id="q2k8F1NlpNZnWGl9-G9X-9" value="CU1 - Consultar Usuario" style="ellipse;whiteSpace=wrap;html=1;" vertex="1" parent="1">
          <mxGeometry x="530" y="460" width="140" height="70" as="geometry" />
        </mxCell>
        <mxCell id="q2k8F1NlpNZnWGl9-G9X-10" value="CU1 - Borrar Usuario" style="ellipse;whiteSpace=wrap;html=1;" vertex="1" parent="1">
          <mxGeometry x="530" y="550" width="140" height="70" as="geometry" />
        </mxCell>
        <mxCell id="q2k8F1NlpNZnWGl9-G9X-12" value="Include" style="endArrow=open;endSize=12;dashed=1;html=1;rounded=0;exitX=0;exitY=0.5;exitDx=0;exitDy=0;entryX=1;entryY=0.5;entryDx=0;entryDy=0;" edge="1" parent="1" source="ZlQN-Xo1y-UWy3ocTEKw-61" target="q2k8F1NlpNZnWGl9-G9X-7">
          <mxGeometry width="160" relative="1" as="geometry">
            <mxPoint x="771" y="450" as="sourcePoint" />
            <mxPoint x="680" y="505" as="targetPoint" />
          </mxGeometry>
        </mxCell>
        <mxCell id="q2k8F1NlpNZnWGl9-G9X-13" value="Include" style="endArrow=open;endSize=12;dashed=1;html=1;rounded=0;exitX=0;exitY=0;exitDx=0;exitDy=0;entryX=1;entryY=0.5;entryDx=0;entryDy=0;" edge="1" parent="1" source="ZlQN-Xo1y-UWy3ocTEKw-61" target="q2k8F1NlpNZnWGl9-G9X-8">
          <mxGeometry width="160" relative="1" as="geometry">
            <mxPoint x="781" y="460" as="sourcePoint" />
            <mxPoint x="690" y="515" as="targetPoint" />
          </mxGeometry>
        </mxCell>
        <mxCell id="q2k8F1NlpNZnWGl9-G9X-14" value="CU2 - Gestion de clase" style="ellipse;whiteSpace=wrap;html=1;" vertex="1" parent="1">
          <mxGeometry x="900" y="760" width="140" height="70" as="geometry" />
        </mxCell>
        <mxCell id="q2k8F1NlpNZnWGl9-G9X-15" style="rounded=0;orthogonalLoop=1;jettySize=auto;html=1;entryX=1;entryY=0.5;entryDx=0;entryDy=0;exitX=0;exitY=1;exitDx=0;exitDy=0;exitPerimeter=0;" edge="1" parent="1" source="ZlQN-Xo1y-UWy3ocTEKw-37" target="q2k8F1NlpNZnWGl9-G9X-14">
          <mxGeometry relative="1" as="geometry">
            <mxPoint x="1000" y="614" as="sourcePoint" />
            <mxPoint x="494" y="755" as="targetPoint" />
          </mxGeometry>
        </mxCell>
        <mxCell id="q2k8F1NlpNZnWGl9-G9X-18" value="Include" style="endArrow=open;endSize=12;dashed=1;html=1;rounded=0;exitX=0;exitY=0;exitDx=0;exitDy=0;entryX=1;entryY=0.5;entryDx=0;entryDy=0;" edge="1" parent="1" source="q2k8F1NlpNZnWGl9-G9X-14" target="q2k8F1NlpNZnWGl9-G9X-19">
          <mxGeometry width="160" relative="1" as="geometry">
            <mxPoint x="820" y="460" as="sourcePoint" />
            <mxPoint x="680" y="595" as="targetPoint" />
          </mxGeometry>
        </mxCell>
        <mxCell id="q2k8F1NlpNZnWGl9-G9X-19" value="CU2 - Asignacion de clase" style="ellipse;whiteSpace=wrap;html=1;" vertex="1" parent="1">
          <mxGeometry x="540" y="760" width="140" height="70" as="geometry" />
        </mxCell>
        <mxCell id="q2k8F1NlpNZnWGl9-G9X-20" value="CU2 - Edicion de clase" style="ellipse;whiteSpace=wrap;html=1;" vertex="1" parent="1">
          <mxGeometry x="540" y="950" width="140" height="70" as="geometry" />
        </mxCell>
        <mxCell id="q2k8F1NlpNZnWGl9-G9X-21" value="CU2 - Borrar Clase" style="ellipse;whiteSpace=wrap;html=1;" vertex="1" parent="1">
          <mxGeometry x="540" y="860" width="140" height="70" as="geometry" />
        </mxCell>
        <mxCell id="q2k8F1NlpNZnWGl9-G9X-22" value="Include" style="endArrow=open;endSize=12;dashed=1;html=1;rounded=0;exitX=0;exitY=0.5;exitDx=0;exitDy=0;entryX=1;entryY=0.5;entryDx=0;entryDy=0;" edge="1" parent="1" source="q2k8F1NlpNZnWGl9-G9X-14" target="q2k8F1NlpNZnWGl9-G9X-21">
          <mxGeometry width="160" relative="1" as="geometry">
            <mxPoint x="931" y="780" as="sourcePoint" />
            <mxPoint x="690" y="805" as="targetPoint" />
          </mxGeometry>
        </mxCell>
        <mxCell id="q2k8F1NlpNZnWGl9-G9X-23" value="Include" style="endArrow=open;endSize=12;dashed=1;html=1;rounded=0;exitX=0;exitY=1;exitDx=0;exitDy=0;entryX=1;entryY=0.5;entryDx=0;entryDy=0;" edge="1" parent="1" source="q2k8F1NlpNZnWGl9-G9X-14" target="q2k8F1NlpNZnWGl9-G9X-20">
          <mxGeometry width="160" relative="1" as="geometry">
            <mxPoint x="941" y="790" as="sourcePoint" />
            <mxPoint x="700" y="815" as="targetPoint" />
          </mxGeometry>
        </mxCell>
        <mxCell id="q2k8F1NlpNZnWGl9-G9X-25" style="rounded=0;orthogonalLoop=1;jettySize=auto;html=1;entryX=0;entryY=0.5;entryDx=0;entryDy=0;exitX=1;exitY=1;exitDx=0;exitDy=0;exitPerimeter=0;" edge="1" parent="1" source="ZlQN-Xo1y-UWy3ocTEKw-12" target="ZlQN-Xo1y-UWy3ocTEKw-60">
          <mxGeometry relative="1" as="geometry">
            <mxPoint x="1230" y="702" as="sourcePoint" />
            <mxPoint x="680" y="1125" as="targetPoint" />
          </mxGeometry>
        </mxCell>
      </root>
    </mxGraphModel>
  </diagram>
</mxfile>
